<?xml version="1.0" encoding="UTF-8"?>
<svg id="Layer_2" data-name="Layer 2" xmlns="http://www.w3.org/2000/svg" viewBox="0 0 511.27 915.64">
  <defs>
    <style>
      .cls-1 {
        fill: #231f20;
        stroke-width: 0px;
      }
    </style>
  </defs>
  <g id="Layer_1-2" data-name="Layer 1">
    <g>
      <path class="cls-1" d="m511.27,836.54c-4.88-46.77-13.84-93-23.43-139-8.94-42.84-17.18-86.28-32.33-127.46-13.61-36.99-33.41-71.8-63.03-98.31-26.45-23.67-60.49-40.34-96.52-40.57-.95,0-2.2-.16-3.05.32-1.79,1-3.35,3.41-4.91,4.82-3.07,2.76-6.34,5.29-9.78,7.57-6.99,4.64-14.64,8.24-22.63,10.8-9.46,3.03-19.28,4.55-29.12,4.67-.13-.01-.24-.01-.35,0-8.41.08-16.84-.86-25.1-2.77-36.55-8.45-65.23-35.07-82.75-67.5-6.75-12.49-11.94-25.8-15.68-39.5,1.58-1.91,2.52-4.22,2.31-6.84-.3-3.76-2.64-5.98-5.67-7.47-2.77-14.62-2.16-34-13.22-45.27-4.32-4.4-10.15-5.58-16.13-5.12-7.44.57-13.15,5.56-16.07,12.26-3.97,9.1-1.41,18.94,2.9,27.43,4.14,8.17,9.42,16.94,15.88,23.51,5.2,5.29,11.67,8.03,19.08,7.21,2.24-.25,4.68-1.06,6.86-2.33,6.84,23.48,18.03,45.75,34.03,64.23,21.22,24.5,50.14,40.04,82.59,42.54,3.43.26,6.88.39,10.32.38-.45,1.85-.99,3.68-1.61,5.48-5.33,15.3-16.64,27.86-30.25,36.4-13.94,8.74-30.34,13.69-46.8,13.98-19.91.34-39.48-5.11-57.37-13.59-9.08-4.3-17.77-9.35-26.14-14.9-7.85-5.2-16-10.64-22.57-17.45-5.86-6.07-10.17-13.75-9.46-22.41.59-7.21,4.53-14.49,11.76-16.77.96-.3-.48-1.76-.77-2.01-.73-.61-1.97-1.4-2.96-1.09-1.77.56-3.39,1.4-4.86,2.54-6.04,4.69-8.34,13.08-7.37,20.45,1.23,9.33,7.71,17.05,14.49,23.12,7.64,6.84,16.35,12.68,24.99,18.16,8.97,5.68,18.3,10.81,28.03,15.06,18.61,8.12,39.06,13.29,59.48,11.95,17.03-1.12,33.91-6.98,47.78-16.96,13.61-9.79,24.07-23.56,28.02-40,.14-.59-.62-1.4-1.55-1.98,25.69-.66,51.03-9.21,69.2-28.14,4.3.17,8.59.59,12.85,1.24,37.44,5.78,70.6,28.57,95,56.77,27.13,31.36,43.4,70.35,54.83,109.8,6.07,20.94,10.85,42.22,15.42,63.53,4.82,22.49,9.57,45,14.01,67.57,9.06,46.02,15.46,74.61,18.14,121.48M97.55,349.49c-.59.74-1.27,1.43-1.97,2.03-1.61,1.36-3.95,2.82-6.08,3.09-2.75.35-5.95-1.67-8.11-3.21-7.91-5.64-13.54-15.66-18.2-24.01-4.35-7.8-7.94-17.02-5.76-26.05,1.67-6.92,8.49-17.65,17.05-15.39,6.92,1.82,10.92,9.23,13.18,15.41,2.49,6.81,3.5,13.96,4.45,21.11.49,3.64,1.07,7.28,1.75,10.91-2.22-.61-4.43-1.09-6.24-1.67-3.72-1.2-6.45-3.75-7.62-7.55-.88-2.85-.63-6.44,2.83-7.2.97-.21-.68-.42-.89-.47-1.04-.22-2.39-.12-3.42.11-7.03,1.54-3.3,10.61.64,13.57,3.9,2.92,10.35,2.98,15.06,5.09.94,4.77,2.05,9.52,3.33,14.22Z"/>
      <path class="cls-1" d="m371.89,719.04c.53-10.61,1.79-21.19,3.76-31.63,0-.59-.01-1.18-.02-1.77-.3-30.8-.61-61.6-.91-92.41-.17-17.32-.34-34.63-.51-51.95-.02-2.47,4.87-1.8,4.89.29.31,30.97.61,61.94.92,92.91.11,10.96.22,21.92.32,32.88.67-2.37,1.37-4.72,2.11-7.07,3.41-10.78,7.64-21.27,12.58-31.43.51-1.04,2.45-.76,3.26-.39,1,.45,1.73,1.33,1.21,2.39-8.67,17.8-14.93,36.77-18.72,56.19-.09.44-.16.87-.24,1.31l.38,38.52c.17,17.32.34,34.63.51,51.95.02,2.52-4.47,1.72-4.89-.29-4.14-19.54-5.65-39.56-4.65-59.5Z"/>
      <path class="cls-1" d="m289.49,439.55c4.87-.68,5.69-6.94,4.88-10.86-.68-3.3-2.31-6.34-2.76-9.7-.41-3.03.49-5.62,2.44-7.92,1.6-1.9,3.6-3.51,4.9-5.64,1.41-2.3,1.13-4.46.32-6.92-.44-1.35-.83-2.77-.19-4.12.5-1.06,1.43-1.82,2.37-2.47,1.89-1.3,4.2-2.26,5.45-4.29,2.37-3.85-.24-8.8-1.44-12.6-.64-2.01-1.19-4.25-.65-6.35.7-2.7,3.13-4.1,5.43-5.31s4.63-2.55,5.84-5.04,1.2-5.22.78-7.82c-.44-2.75-1.33-5.41-2.37-7.99-1.44-3.56-2.93-7.1-4.39-10.65-6.65-16.14-13.3-32.28-19.95-48.41-.43-1.05-1.08-2.03-1.82-2.9-.16-.19-1.34-1.36-.96-.43,5.86,14.23,11.72,28.45,17.58,42.68,1.51,3.67,3.03,7.34,4.54,11.01,1.25,3.03,2.61,6.03,3.58,9.16,1.58,5.12,2.06,11.35-2.94,14.73-2.24,1.51-5.07,2.32-6.87,4.44-1.4,1.65-1.75,3.81-1.47,5.91.58,4.33,3.49,8.45,3.1,12.9-.21,2.47-1.86,4.06-3.84,5.33-1.77,1.13-4.08,2.16-4.91,4.25-1.09,2.75,1.19,5.26.97,8.01-.19,2.36-1.95,4.23-3.5,5.86-1.87,1.97-3.95,3.93-4.69,6.63-.99,3.6.47,7.34,1.61,10.72.97,2.88,1.62,5.68.91,8.7-.58,2.46-2.13,4.63-4.77,4.99-.29.04.98,2.14,1.08,2.29.28.4,1.13,1.92,1.75,1.83h0Z"/>
      <path class="cls-1" d="m99.28,359.09c.55,2.2-.79,4.08-2.74,5.04s-4.03.44-5.87-.73c-2.36-1.49-4.28-3.64-6.21-5.64-2.18-2.25-4.35-4.52-6.47-6.83-8.42-9.17-16.2-19.16-20.47-30.98-3.95-10.92-5.2-25.19,1.93-35.14,2.99-4.18,8.01-7.71,13.37-7.32,4.67.34,8.8,3.59,10.66,7.82,2.26,5.12,1,11.38-2.52,15.61-2.05,2.47-5.01,3.86-7.37,5.99s-4.25,5.29-3.32,8.55c.34,1.18,1.43,1.87,2.64,1.97.77.07,2.59-.35,2.25-1.54-.95-3.32,1.6-5.93,4.07-7.73s4.98-3.43,6.8-5.93c3.4-4.69,4.42-10.93,2.48-16.4s-7.24-9.91-12.94-11.34c-6.24-1.56-12.69.4-17.4,4.68-10.25,9.31-10.01,25.63-6.36,37.89,4,13.45,12.63,24.84,21.99,35.06,2.66,2.9,5.39,5.75,8.14,8.56,2.45,2.51,5.07,5.03,8.35,6.41s6.84,1.56,10.02-.19c2.61-1.44,4.63-4.31,3.86-7.39-.3-1.19-1.47-1.87-2.64-1.97-.8-.07-2.54.34-2.25,1.54h0Z"/>
      <path class="cls-1" d="m290.99,282.24c8.83-1.42,16.6-6.89,21-14.67,2.07-3.66,3.19-7.73,3.44-11.92.21-3.51-.23-8.99,3.04-11.32,1.52-1.08,3.25-.64,4.88-.08,2.22.76,4.34,1.78,6.59,2.46,3.83,1.16,8.08,1.15,11.44-1.26,3.16-2.27,4.87-5.91,5.59-9.64.86-4.42-.17-8.77-1.47-13.01-1.66-5.44-4.38-11.56-2.78-17.32,1.03-3.74,4.41-9.17,8.97-7.85,1.42.41,4.78-1.23,2.52-2.6-7.3-4.44-4.45-15.92,1.32-20.39,4.28-3.31,9.76-4.44,15.02-4.94,2.68-.25,5.38-.34,8.07-.39,2.31-.04,4.84-.13,7.02.77,4.7,1.94,4.27,7.83,1.76,11.39-3.13,4.43-9.08,5.18-14.07,5.57-5.62.43-11.93,1.1-17.23-1.24-4.15-1.83-7.71-6.59-6.83-11.31,1.49-8.02,13.97-9.19,13.66-18.26-.16-4.64-4.06-8.09-7.82-10.22-4.09-2.32-8.9-3.38-12.62-6.34-9.32-7.41,3.49-16.87,5.8-24.31,3.33-10.74-3.92-20.93-12.63-26.49-19.43-12.41-45.59-11.28-62.48-28.22-6.86-6.88-12.86-18.63-7.67-28.15,1.94-3.56,7.2-7.22,11.17-4.48,3.07,2.12,4.25,7.66,1.22,10.3-1.92,1.68-4.8,2.02-7.07,3.05-2.03.92-3.72,2.27-4.88,4.18-2.15,3.54-1.88,8.28-.28,11.97,1.98,4.55,6.13,7.59,10.51,9.65,5.02,2.36,10.88,4.03,16.34,4.95s11.45.46,15.34-3.81c3.38-3.71,3.07-8.8-.58-12.2-4.06-3.79-9.92-4.97-15.26-5.56-6.24-.68-12.55-.24-18.8-.86-4.56-.45-9.26-1.78-13.07-4.41-4.45-3.08-6.03-7.26-6.93-12.41s-2.9-9.17-7.77-11.45c-4.21-1.97-9.24-2.05-13.68-.91-5.36,1.38-9.99,4.67-14.51,7.72s-9.97,6.64-15.8,6.47c-4.48-.13-8.15-3.37-8.99-7.79s2.46-8.27,6.93-7.13c4.9,1.25,6.8,7.08,6.81,11.57l5,.17c-1.74-11.47-9.79-20.38-19.79-25.72-12.05-6.44-26.05-6.84-39.26-4.46-8.42,1.52-16.61,4.06-24.71,6.77l2.43,2.86c7.61-2.63,18.69-6.77,25.9-1.03,4.26,3.39,7.42,11.04,3.5,15.79-2.68,3.24-6.84,2.91-10.47,1.74-4.18-1.34-7.98-3.6-11.98-5.35-8.16-3.57-17.3-5.21-26.18-4.17-4.41.52-8.67,1.76-12.68,3.66s-7.94,4.57-11.85,6.95c-6.34,3.86-16.44,8.97-23.37,3.44-4.2-3.36-6.27-13.09.17-15.37,6.93-2.46,8.41,8.07,6.92,12.43-2.91,8.53-13.61,10.31-21.31,11.57-11.72,1.93-23.45,3.83-35.18,5.74-.92.15-2.19.78-1.81,1.92s2.09,1.38,3.03,1.23c12.11-1.98,24.22-3.89,36.32-5.93,8.23-1.38,18.98-3.63,23.09-11.91,2.98-6.01,1.67-14.99-5.14-17.73-4.09-1.64-9.43-.88-12.48,2.47-2.46,2.71-2.91,6.48-2.14,9.94,2.05,9.24,12.09,12.22,20.47,10.77,10.67-1.84,18.29-9.68,28.01-13.68,9.92-4.08,21.19-3,30.92,1.11,8.21,3.47,18.79,10.79,27.65,4.9,7.42-4.93,5.03-15.31-.65-20.62-9-8.4-22.99-4.26-33.16-.75-.96.33-1.67,1.23-.97,2.17s2.39,1.03,3.4.7c12.88-4.3,26.32-8.43,40.06-7.69,10.66.57,21.25,4.78,28.6,12.71,3.96,4.28,6.8,9.56,7.68,15.36.32,2.08,5,2.42,5,.17,0-5.15-2.05-10.61-6.68-13.33-4.29-2.52-10.49-2.62-14.36.79-3.36,2.96-3.47,7.79-1.46,11.55,2.44,4.58,6.93,6.99,12.02,7.34,6.19.43,12.2-2.25,17.31-5.5s9.84-7.28,15.68-8.88c4.22-1.16,9.48-.49,12.29,3.17,1.83,2.39,2.11,5.6,2.63,8.47.49,2.69,1.33,5.15,2.89,7.41,6.34,9.23,19.06,10.52,29.24,10.72,6.29.12,13.2-.16,19.08,2.45,2.32,1.03,4.66,2.77,5.31,5.36s-.87,5.24-3,6.73c-2.64,1.85-5.89,1.73-8.92,1.14s-6.16-1.48-9.15-2.43c-4.97-1.58-10.63-3.94-13.18-8.82-1.95-3.74-2.46-9.35.94-12.46,1.97-1.8,4.91-2.16,7.27-3.23,2.15-.97,4.12-2.49,4.96-4.77,1.5-4.07-.3-8.92-3.8-11.37-4.19-2.92-10.09-2.39-14.32.14-10.36,6.19-8.07,20.43-2.69,29.16,13.51,21.95,41.87,22.94,63.09,32.78,5.33,2.47,10.46,5.78,13.92,10.62,3.26,4.57,4.93,10.89,3.02,16.32-1.73,4.91-5.81,8.49-7.97,13.17s-1.3,9.35,2.39,12.78,8.65,4.7,13.08,6.96c3.97,2.03,8.77,6.09,6.6,11.08-1.66,3.84-6.12,5.88-9.07,8.59-3.5,3.21-5.16,7.57-3.48,12.2,4.39,12.07,19.61,11.33,29.99,10.49,5.46-.44,11.6-1.51,15.64-5.55,3.19-3.19,5.05-8.59,2.83-12.81-2.5-4.75-8.36-5.69-13.23-5.71-5.75-.02-11.68.21-17.3,1.51-5.07,1.17-10.45,3.39-13.81,7.55-2.71,3.35-4.3,7.78-4.06,12.11.23,4.08,2.13,7.79,5.67,9.94l2.52-2.6c-9.02-2.61-16.25,6.71-15.83,15.03.48,9.67,7.74,19.08,3.85,28.79-1.3,3.24-3.9,6.43-7.74,5.78-4.42-.75-8.19-3.64-12.78-3.74-4.25-.1-7.91,2.32-9.16,6.42s-.67,8.36-1.5,12.48c-1.97,9.75-10.32,18.18-20.19,19.76-.92.15-2.18.79-1.81,1.92s2.09,1.38,3.03,1.23h0Z"/>
      <path class="cls-1" d="m220.8,475.89c-.07,40.32-4.31,80.6-12.72,120.03-2.34,10.99-5.01,21.92-7.99,32.76l4.53-.78c-1.02-1.37-2.03-2.73-3.05-4.1l-1.51,3.41c1.83-.56,3.18,1.69,3.49,3.19.55,2.65-.26,5.58-.71,8.19-1.01,5.96-2.03,11.91-3.04,17.87-2.05,12.02-4.1,24.04-6.15,36.06-4.12,24.15-8.23,48.3-12.35,72.45-2.31,13.54-4.61,27.07-6.92,40.61-.52,3.05,4.3,3.77,4.78.95,4.34-25.45,8.67-50.9,13.01-76.35,4.34-25.45,8.67-50.9,13.01-76.35.59-3.47,1.18-6.93,1.77-10.4s1.35-6.79,1.63-10.2c.25-2.96-.28-6-2.37-8.23-1.92-2.04-4.73-2.93-7.43-2.1-1.32.41-2.49,2.09-1.51,3.41s2.03,2.73,3.05,4.1c1.17,1.57,3.99,1.19,4.53-.78,10.71-39.05,17.38-79.21,19.82-119.63.69-11.43,1.04-22.88,1.06-34.33,0-3.01-4.96-2.65-4.96.22h0Z"/>
      <path class="cls-1" d="m34.35,433.94c6.13,26.59,12.26,53.18,18.4,79.77s12.26,53.18,18.4,79.77c3.45,14.98,6.91,29.96,10.36,44.94.41,1.78,4.92.1,4.69-1.74s-.47-3.68-.7-5.52l-4.69,1.74c14.85,48.36,29.89,96.66,45.13,144.9,4.31,13.64,8.63,27.28,12.97,40.92.55,1.74,5.26.07,4.69-1.74-15.34-48.21-30.49-96.47-45.45-144.8-4.23-13.67-8.45-27.34-12.65-41.02-.56-1.82-4.92-.06-4.69,1.74s.47,3.68.7,5.52l4.69-1.74c-6.13-26.59-12.26-53.18-18.4-79.77-6.13-26.59-12.26-53.18-18.4-79.77-3.45-14.98-6.91-29.96-10.36-44.94-.4-1.72-5.12-.15-4.69,1.74h0Z"/>
      <path class="cls-1" d="m146.92,810.01c-5.42,2.65-6.96,8.81-6.53,14.41.56,7.39,5.02,14.69,2.93,22.19-.88,3.14-3.14,6.45-.87,9.57s6.35,2.3,9.23.97c.57-.26,1.2-.47,1.74-.78.3-.17.41.04-.01-.08-.63-.17-.46-.19-.3.16.53,1.18.23,2.5.06,3.74-.43,3.05-.04,5.76,2.97,7.25s6.46,1.31,9.71,1.16c3.42-.16,6.88-.48,10.2-1.36s6.35-2.23,8.78-4.5c2.55-2.39,4.05-5.47,5.03-8.78,1.09-3.72,1.57-7.63,2.06-11.47.55-4.32.95-8.66,1.19-13.01.2-3.68.44-7.43-.47-11.04s-3.08-6.14-6-8.1-6.38-3.22-9.68-4.48c-3.85-1.48-7.79-2.78-11.9-3.26-6.56-.77-14.14.93-18.15,6.62-.85,1.21-1.4,2.57-1.75,4-.4,1.63,4.53,2.14,4.99.26,1.29-5.27,6.88-8.42,12.03-8.41,3.5,0,6.91,1.04,10.17,2.22,2.98,1.08,6.06,2.17,8.86,3.68s4.97,3.43,6.08,6.39c1.19,3.14,1.05,6.61.91,9.9-.34,7.51-1.03,15.1-2.42,22.5-.59,3.16-1.45,6.33-3.23,9.06-1.57,2.4-3.82,4.11-6.45,5.2s-5.56,1.52-8.41,1.76c-2.41.21-5.23.68-7.56.07-2.61-.68-2.25-3.44-1.95-5.56.37-2.69.23-5.23-2.73-6.25-1.41-.49-2.98-.47-4.42-.08-1.32.36-2.46,1.11-3.73,1.56-1.39.49.25-.04.15.24-.03.09-.81-1.19-.84-1.3-.5-1.51.05-3.08.61-4.49.76-1.94,1.42-3.84,1.57-5.93.14-1.94-.07-3.88-.42-5.78-.69-3.75-2.01-7.36-2.67-11.11-.89-5.04-.64-12.47,4.67-15.07.93-.46.95-1.33.1-1.88-.94-.61-2.53-.67-3.53-.18h0Z"/>
      <path class="cls-1" d="m152.49,837.26c1.24-1.73,1.75-3.9,1.51-6.01-.15-1.28-.53-2.5-1.06-3.67-.76-1.66-1.75-3.3-2.98-4.65-.01-.01-.49-.59-.65-.47-2,1.55-3.33,3.86-3.7,6.36-.05.31.24.88.36,1.13.26.58.59,1.16.94,1.68.12.18,1.29,1.73,1.36,1.22.36-2.42,1.65-4.59,3.59-6.09l-.65-.47c.11.12.43.51.16.16.31.4-.21-.32-.04-.07.1.15-.21-.35-.25-.42-.3-.51.13.29-.09-.17-.15-.32,0,0,.03.06.12.25-.16-.44,0,0,.03.09.07.18.1.28-.08-.24.06.24.08.33.05.22.1.43.13.65.06.37.08.75.08,1.13,0,1.69-.47,3.33-1.45,4.71-.14.2.04.62.1.79.2.55.49,1.09.79,1.59.09.15,1.47,2.19,1.66,1.92h0Z"/>
      <path class="cls-1" d="m169.33,833.15c-.08-.04-.15-.09-.23-.13.06.04.21.19.01,0-.11-.1-.22-.19-.32-.3s-.18-.22-.27-.34c-.15-.21-.05-.07-.02-.01-.05-.09-.09-.19-.13-.28-.12-.29-.21-.6-.26-.91-.03-.17-.05-.34-.05-.51.01.21,0-.21.01-.3.03-.33.09-.66.18-.98.04-.15.1-.29.15-.44.08-.27.02-.07,0,0,.05-.1.1-.2.15-.3.08-.14.16-.27.24-.39.09-.14.39-.44.1-.16.1-.1.25-.2.33-.32.15-.21-.35.21-.12.09.07-.04.23-.11.28-.18-.03.04-.57.27-.15.09.21-.09.29-.01-.17.05.07,0,.17-.04.23-.07.32-.11-.51.07-.18.03.08,0,.16-.02.24-.03.41-.07-.06.02-.13,0,.06.02.24,0,.32,0,.06,0,.52.04.22,0-.27-.03.29.06.37.08.08.02.67.19.35.08.42.15.83.34,1.22.56.62.36,1.25.89,1.8,1.56.58.71.99,1.51,1.31,2.36.77,2.1.89,4.37.77,6.59l4.65-1.27c-.95-.73-1.89-1.46-2.84-2.19-.88-.68-2.24-.5-3.2-.06-.46.21-2.17,1.29-1.27,1.98.95.73,1.89,1.46,2.84,2.19.71.55,1.74.52,2.57.27.41-.12.81-.28,1.17-.5.28-.17.88-.64.91-1.04.13-2.44.07-4.97-.78-7.29s-2.29-4.06-4.4-5.15c-4.14-2.14-10.81-.68-11.9,4.4-.44,2.07.27,4.16,2.16,5.21.97.54,2.56.12,3.42-.46.68-.46,1.42-1.37.4-1.93h0Z"/>
      <path class="cls-1" d="m244.81,207.45c-1.14,7.55-.45,15.21,1.99,22.44,2.53,7.5,7.08,13.78,12.44,19.51s11.1,10.95,14.68,17.86c3.06,5.9,4.27,13.35.77,19.36-3.07,5.26-10.87,7.24-15.39,2.56-1.69-1.75-5.83,1-3.95,2.95,4.93,5.11,13.22,4.54,18.78.82,6.19-4.14,8.34-12.32,7.19-19.36-2.75-16.92-20.33-25.5-27.58-40.02-4.02-8.05-5.54-17.29-4.19-26.19.43-2.89-4.37-2.31-4.73.07h0Z"/>
      <path class="cls-1" d="m231.43,263.05c-4.25-2.38-7.3-6.7-9.1-11.15-2.2-5.44-2.47-11.56-.89-17.2s5.12-10.1,8.81-14.48c3.47-4.11,7.03-8.26,8.65-13.48s1.23-10.8-2.63-14.94c-.77-.83-1.84-1.59-2.87-2.07-.74-.35-.97-.2-.34.47,3.58,3.84,3.12,9.89,1.49,14.48-1.93,5.44-5.95,9.69-9.57,14.05-3.88,4.67-7.15,9.63-8.21,15.71-1,5.72-.17,11.72,2.46,16.9,3,5.89,8.1,10.54,13.82,13.75.39.22,1.38.89,1.06.07s-1.99-1.72-2.69-2.12h0Z"/>
      <path class="cls-1" d="m195.62,267.04c-3.11-.87-6.21-1.82-9.18-3.11-2.62-1.14-5.53-2.6-7.46-4.77s-2.34-5.57-2.11-8.32c.3-3.75,1.92-7.26,3.98-10.35,7.18-10.77,23.71-17.89,22.56-32.82-.49-6.26-4.8-13.45-11.14-15.19l-.16.02c-12.09,17.98-24.19,35.97-36.28,53.95-3.01,4.47-6.02,8.94-9.02,13.41-2.64,3.93-5.28,7.92-7.07,12.32-1.9,4.67-2.38,9.54-2.48,14.53s-.19,9.75-.95,14.61c-1.68,10.73-5.74,21.01-11.8,30.03-.47.7,2.48,4.3,3.14,3.89,3.55-2.22,5.27-6.33,5.32-10.42.06-4.71-2.2-8.95-5.1-12.53-3.25-4.03-7.41-7.14-11.98-9.53-5.03-2.62-10.41-4.53-15.32-7.39s-9.01-6.46-12.05-11.06c-.51-.77-1.36-2.25-2.3-2.54-.87-.28-.26.72.02,1.14,2.9,4.38,6.35,8.39,10.39,11.76,3.98,3.32,8.48,5.73,13.18,7.86,7.64,3.47,18.87,7.26,19.83,17.04.44,4.53-1.17,9.29-5.14,11.78l3.14,3.89c4.82-7.17,8.38-15.14,10.5-23.51,1.09-4.29,1.8-8.69,2.11-13.11.32-4.65.06-9.33.53-13.97.95-9.32,6.38-16.78,11.46-24.32,5.54-8.24,11.09-16.48,16.63-24.72,5.55-8.26,11.1-16.51,16.66-24.77,2.78-4.13,5.55-8.26,8.33-12.38.34-.51.68-1.21,1.11-1.65.39-.41.61-.27,1.09-.09.66.25,1.3.58,1.86,1,.2.15.39.31.56.49-.06-.06-.26-.35-.08-.08.22.33.49.86.68,1.32,1.19,2.84,1.38,6.08.88,9.09-.59,3.56-2.4,6.7-4.61,9.51-5.01,6.37-12.04,10.82-16.83,17.38-2.34,3.21-4.25,6.92-4.8,10.89-.53,3.76.43,7.43,2.39,10.64,3.93,6.43,10.33,10.14,17.29,12.49,1.66.56,3.34,1.06,5.03,1.53.63.18-.54-1.67-.6-1.76-.5-.7-1.31-1.91-2.21-2.16h0Z"/>
      <path class="cls-1" d="m92.11,129.1c-12.76,6.17-24.4,15.7-30.63,28.67s-5.72,28.87,1.92,41.31c3.59,5.84,9.22,11.69,16.43,12.36,5.99.55,12.41-3.79,12.87-10.12.25-3.48-1.5-7.01-3.67-9.64s-5.15-4.17-7.88-6.05c-2.47-1.7-4.76-3.86-5.92-6.68s-1.48-6.29-1.01-9.41c.94-6.25,5.85-12.97,12.75-12.89,3.27.04,6.45,1.86,8.44,4.41,2.11,2.7,2.12,6.89,1.91,10.14-.13,2.05-.45,4.07-.85,6.08-.18.92.61,2.17,1.06,2.91.1.17,1.31,1.86,1.43,1.22.77-3.93,1.25-8.01.68-12s-2.12-7.81-4.51-11.03c-1.93-2.6-4.5-4.9-7.68-5.79s-6.34-.21-8.98,1.58c-5.51,3.75-7.65,10.8-6.8,17.18.92,6.91,4.77,13.98,10.5,18.06,2.67,1.9,5.44,3.44,7.76,5.77.2.2.16.33.06.02.06.18.09.35.12.54.13.74.1,1.49-.02,2.22-.24,1.48-.87,2.89-1.73,4.11-1.76,2.48-4.54,4.35-7.56,4.85-3.42.56-6.95-.54-9.87-2.31-12.37-7.51-13.17-24.88-9.14-37.28,4.47-13.76,15.54-24.39,27.9-31.34,1.54-.87,3.12-1.68,4.71-2.45.71-.34-1.51-4.82-2.31-4.43h0Z"/>
      <path class="cls-1" d="m95.64,70.9c-12.41-3.02-25.41,1.49-34.38,10.33-4.45,4.38-7.97,9.65-10.64,15.28-2.77,5.83-5.22,12.45-5.66,18.93-.47,6.96,2.46,14.2,9.05,17.29l-1.52-2.53c-4.23,8.82-14.37,14.24-24.05,12.45-1.37-.25-2.16.77-1.57,1.97,2.63,5.37-2.36,12.7-8.48,11-.88-.24-2.29-.25-2.43.93s1.34,2.12,2.25,2.37c4.08,1.13,8.8.26,11.64-3.07s3.05-7.81,1.19-11.6l-1.57,1.97c10.89,2.02,22.67-3.7,27.48-13.74.49-1.03-.71-2.15-1.52-2.53-4.8-2.25-6.12-8.23-5.8-13.05.4-5.97,2.61-11.97,5.09-17.36,4.67-10.16,12.21-19.3,22.78-23.58,5.64-2.28,11.97-3.19,17.95-1.74.88.22,2.29.27,2.43-.93.13-1.1-1.34-2.15-2.25-2.37h0Z"/>
      <path class="cls-1" d="m260.17,151.86c.13-8.7,2.05-17.31,5.76-25.19,2.87-6.1,7.81-14.21,15.65-13.57,7.04.58,11.75,8.16,19.27,6.76,3.51-.65,6.48-2.93,7.98-6.17,1.42-3.07,1.58-6.42,1.78-9.74.19-3.1.4-7.77,3.28-9.73,1.36-.93,3.32-.63,4.83-.29,2.19.5,4.27,1.41,6.29,2.36,1.48.7,5.63-1.85,3.49-2.86-3.68-1.73-7.78-3.33-11.92-2.76s-7.75,3.08-9.3,6.97c-1.36,3.4-1.26,7.02-1.58,10.59-.24,2.65-.76,6.92-3.34,8.42-2.35,1.37-6.09-1.16-8.09-2.36-3.28-1.96-6.59-4.07-10.52-4.27-9.17-.45-16.37,6.15-20.57,13.66-4.98,8.9-7.58,19.19-7.73,29.36-.03,1.98,4.7.54,4.72-1.19h0Z"/>
      <path class="cls-1" d="m210.14,110.6c-6.97-8.07-19.34-10.58-29.19-6.92-4.82,1.79-8.96,5.31-11.71,9.63s-3.91,9.45-3.67,14.7c.09,2-.23,5.1-2.88,5.04-1.07-.02-2.21-.64-3.18-1.07-1.42-.63-2.85-1.3-4.36-1.71-5.51-1.51-11.67-.77-16.54,2.28-4.44,2.79-7.28,7.7-7.75,12.9-.52,5.74,2.22,10.74,5.79,15.03,4.03,4.84,9.37,9.38,10.99,15.73.66,2.6.47,5.39-.72,7.81-.94,1.91-2.62,4.05-4.9,4.27-.67.07-2.17.4-1.79,1.37s2.31.97,3.05.9c4.84-.47,8.3-3.9,9.42-8.55,1.26-5.26-1.48-10.41-4.63-14.44-3.49-4.46-7.95-8.24-10.53-13.37-2.38-4.74-2.3-10.35.28-14.99,2.38-4.28,6.91-7.36,11.89-7.39,2.63-.01,4.82,1.12,7.19,2.11,2.75,1.15,5.67,1.82,8.63,1.17,2.43-.54,4.44-1.95,4.93-4.5.25-1.33.04-2.71,0-4.05s.05-2.68.27-4c.8-4.9,3.33-9.61,7-12.97,3.94-3.62,9.08-5.67,14.47-5.15s10.13,3.22,13.57,7.21c.96,1.11,5.78.62,4.35-1.04h0Z"/>
      <path class="cls-1" d="m106.21,63.84c6.58-2.69,13.98-5.73,21.24-4.97,3.63.38,6.84,1.83,9.63,4.16s5.35,5.17,8.33,7.41c6.13,4.6,14.1,6.79,21.7,5.51,6.76-1.14,13.16-5.25,16.36-11.4,3.44-6.61,2.31-15.23-2.95-20.55-.83-.84-2.39-.88-3.43-.47-.87.35-1.68,1.29-.84,2.14,4.39,4.45,5.35,11.55,2.86,17.2s-8.11,9.53-14.12,10.25c-6.94.83-13.52-2.44-18.5-7.03-2.62-2.42-5.1-5.03-8.13-6.95s-6.65-3.04-10.24-3.32c-8.5-.66-16.73,2.27-24.49,5.43-.89.36-1.63,1.28-.84,2.14s2.44.87,3.43.47h0Z"/>
      <path class="cls-1" d="m304.44,386.54c-1.93-5.34-4.56-11.01-10.49-12.72-2.42-.7-5.18-.71-7.4.59-1.08.63-1.86,1.55-2.43,2.66-.3.58-.51,1.23-.89,1.77-.14.2-.37.37-.5.57l-.26.11c-.64.2-.11.49,1.58.88-.6-.98-4.37-2.78-4.41-.5-.05,2.64-1.06,5.09-2.96,6.94l4.32,2.13c-.32-3.06-1.08-6.32-3.53-8.4-3.05-2.59-6.91-2.12-9.79.42-3.31,2.93-6.35,6.23-9.49,9.34s-6.37,6.3-9.55,9.45c-2.99,2.95-6.15,6.06-7.39,10.19l4.59,1.81c.12-9.29,2.59-18.47,8.64-25.69,2.9-3.46,6.22-6.8,9.7-9.69,1.59-1.33,3.31-2.52,5.32-3.12,2.23-.67,4.3.21,6.53.35,2.36.14,4.55-.57,6.07-2.43,1.39-1.7,1.88-3.82,1.34-5.95-.47-1.87-5.2-3.05-4.56-.51.41,1.63-.31,3.39-1.57,4.46-1.75,1.5-3.78.66-5.82.37-4.42-.63-8.31,1.43-11.59,4.22-6.86,5.84-13.34,12.81-16.29,21.47-1.66,4.87-2.4,9.99-2.47,15.12-.01,1.06,1.09,1.87,1.97,2.21.65.25,2.32.59,2.62-.4,1.22-4.07,4.28-6.98,7.22-9.89,3.42-3.38,6.84-6.77,10.26-10.15,1.77-1.75,3.54-3.5,5.31-5.25,1.4-1.39,2.79-3.12,4.52-4.11.36-.21.78-.42,1.2-.46.16-.02.67.15.35,0-.21-.09-.1-.22.07.11.13.25.37.5.51.77.7,1.32.98,2.9,1.13,4.37s2.96,3.47,4.32,2.13c2.3-2.24,3.63-5.19,3.68-8.41l-4.41-.5c1.38,2.24,5.06,3.22,7.07,1.22,1.05-1.04,1.27-2.56,2.19-3.68.58-.71,1.45-1.17,2.33-1.35,4.96-1.02,7.05,5.41,8.37,9.05.41,1.13,1.66,1.89,2.82,2.01.88.09,2.15-.37,1.74-1.5h0Z"/>
      <path class="cls-1" d="m266,360.22c-1.55.53-3.25.25-4.6-.67-.19-.13-.61-.61-.8-.68.04.01.21.34.18.28.39.64.08.17.09.13.06-.27-.23-.93-.26-1.24-.06-.52-.07-1.03-.04-1.56.31-4.24,3.04-7.64,5.63-10.81.84-1.02-2.26-4.66-2.56-4.29-3.31,4.05-6.8,8.7-5.65,14.25.93,4.46,5.27,10.7,10.59,8.88.63-.21-1.42-4.68-2.56-4.29h0Z"/>
      <path class="cls-1" d="m46.62,431.2c2.08-16.64,1.19-33.6-2.59-49.94l-1.21,1.01c7.05,1.2,14.07-1.43,19.23-6.24,5.56-5.17,8.22-12.71,8.43-20.2.13-4.55-.57-9.1-1.89-13.45-.34-1.11-1.44-2-2.51-2.36-.71-.24-2.02-.25-1.74.88,2.13,8.41,1.35,17.42-2.24,25.32-.77,1.69,3.4,4.36,4.06,2.92,3.81-8.39,4.69-17.82,2.43-26.75l-4.25-1.49c2.16,7.08,2.62,14.77.28,21.87-2.13,6.43-6.88,11.85-13.1,14.58-3.32,1.45-6.94,2.02-10.53,1.41-.7-.12-1.39.22-1.21,1.01,3.73,16.11,4.58,32.75,2.53,49.16-.21,1.68,4.08,4.11,4.31,2.27h0Z"/>
      <path class="cls-1" d="m43.39,380.09c-13.05-9.57-22.41-23.97-26.39-39.61-.25-.99-1.57-1.65-2.43-1.99-.29-.12-2.3-.73-2.07.19,3.32,13.05,10.24,25.12,19.8,34.61,2.84,2.82,5.88,5.38,9.1,7.74.59.43,2.29,1.36,3.02.85.78-.55-.68-1.55-1.03-1.8h0Z"/>
      <path class="cls-1" d="m290.7,406.74c-7.52,2.43-15.63,1.96-22.8-1.39-.88-.41-2.58-.59-3.24.33-.7.97.51,1.87,1.27,2.23,8.62,4.03,18.66,4.68,27.71,1.75,1.04-.34,1.22-1.33.5-2.1-.8-.84-2.35-1.17-3.44-.81h0Z"/>
      <path class="cls-1" d="m286.42,408.63c-4.47,4.77-6.99,11.11-6.56,17.68l4.71-1.46c-1.46-2.72-4.44-4-7.45-3.92-1.75.05-3.51.56-5.01,1.47-.6.37-1.18.83-1.67,1.34-.11.11-.71.75-.64.79-.03-.01.7-.25.69-.23-.34.46-2.05-.99-2.35-1.46-1.04-1.65-.28-3.9.42-5.52,1.57-3.66,4.26-7.42,2.57-11.55-.82-2-5.45-.12-4.63,1.89,1.61,3.92-2.02,7.76-3.12,11.34-1.03,3.38-.32,7.12,3.33,8.42,1.59.56,3.29.52,4.83-.18.99-.45,1.62-1.1,2.33-1.9.18-.2.23-.3.51-.51-.35.27.74-.35.21-.11.49-.22.55-.22.98-.26.64-.05,1.1,0,1.75.19,1.11.34,2.08,1.09,2.63,2.11.93,1.73,4.83.44,4.71-1.46-.36-5.45,1.38-11.03,5.15-15.05.65-.69,1.1-1.82,0-2.36-1.01-.49-2.64-.03-3.38.76h0Z"/>
      <path class="cls-1" d="m296.77,389.61c-10.61.63-21.21,1.61-31.81,2.45-1.72.14.66,4.4,2.34,4.26,10.6-.84,21.2-1.82,31.81-2.45,1.7-.1-.65-4.36-2.34-4.26h0Z"/>
      <path class="cls-1" d="m503.7,849.75c-26.84,13.7-54.95,24.9-83.85,33.43-8.17,2.41-16.4,4.6-24.68,6.58-.71.17.9,1.45,1.05,1.57.57.44,1.95,1.59,2.77,1.39,29.52-7.06,58.37-16.85,86.07-29.25,7.69-3.44,15.28-7.08,22.78-10.91.41-.21-1.59-1.78-1.75-1.88-.53-.36-1.71-1.27-2.39-.92h0Z"/>
      <path class="cls-1" d="m312.31,904.28c-10.66-21.51-20.61-43.38-29.4-65.72-7.93-20.15-14.9-40.69-20.65-61.57s-9.88-40.26-13.18-60.72c-3.44-21.29-5.74-42.75-7.24-64.26-1.66-23.66-2.38-47.38-2.62-71.1-.03-3.09-.05-6.19-.07-9.28-.01-2.54-4.1-3.38-4.7-.7-6.5,28.88-3.56,58.71-.31,87.81,3.4,30.47,6.83,60.94,10.24,91.41s6.44,58.36,9.84,87.52c1.57,13.47,2.75,27.33,6.49,40.43,2.91,10.18,7.58,19.86,11.43,29.69.8,2.05,1.6,4.11,2.38,6.17,1.05,2.75,5.61,1.95,4.45-1.09-2.55-6.69-5.22-13.32-7.94-19.93-1.74-4.23-3.5-8.47-4.92-12.82-1.51-4.62-2.35-8.37-3.18-12.95-1.3-7.23-2.2-14.53-3.09-21.82-3.38-27.82-6.33-55.7-9.45-83.56-3.39-30.28-6.79-60.56-10.18-90.84s-7.43-58.88-3.06-88.14c.53-3.55,1.19-7.07,1.98-10.57l-4.7-.7c.12,24.16.69,48.34,2.17,72.46,1.33,21.7,3.42,43.36,6.63,64.87s7.22,41.15,12.48,61.37c5.43,20.86,12.07,41.39,19.71,61.55,8.38,22.1,17.93,43.74,28.23,65,1.39,2.87,2.8,5.74,4.22,8.6.57,1.15,1.68,2.08,3.05,1.74,1.14-.28,1.96-1.71,1.4-2.83h0Z"/>
      <path class="cls-1" d="m259.63,455.49c-6.81,19.45-18.13,37.16-32.58,51.82-14.34,14.53-31.67,26.2-50.68,33.69-19.38,7.63-40.32,10.86-61.1,9.05-21-1.84-41.45-8.37-59.78-18.76s-34.56-24.76-46.63-42.06c-1.47-2.11-2.88-4.27-4.24-6.46-1.46-2.36-5.8.12-4.34,2.48,11.44,18.56,27.23,34.12,45.56,45.85,18.25,11.68,39.08,19.48,60.55,22.48s43.26,1.05,63.75-5.8,38.93-17.93,54.63-32.34,28.37-32.04,36.56-51.69c1.02-2.44,1.96-4.91,2.83-7.4,1.05-2.99-3.65-3.41-4.55-.84h0Z"/>
    </g>
  </g>
</svg>